# xmcd CD database file
#
# Track frame offsets:
#	150
#	13781
#	26456
#	39899
#	57782
#	69556
#	86582
#	100443
#	121020
#	132315
#	144658
#	163905
#	179970
#	191673
#	208274
#	225329
#	241620
#	257315
#	269775
#	279754
#	290004
#	314438
#
# Disc length: 4357 seconds
#
# Revision: 0
# Processed by: cddbd v1.5.2PL0 Copyright (c) Steve Scherf et al.
# Submitted via: CDex 2.20
#
DISCID=41110316
DTITLE=Trampske - Porta3_1973
DYEAR=1973
DGENRE=Country
TTITLE0=PozlacenejStin_Plizak
TTITLE1=PisenBloudivehoBrzdare_Termiti
TTITLE2=KvetSakuryBile_KamaradiZRokycan
TTITLE3=Odjizdim_Hoboes
TTITLE4=Zlato_Pacifik
TTITLE5=PoranenyKoleno_Pacifik
TTITLE6=KolaNociHrmici_Priboj
TTITLE7=Ontario_Priboj
TTITLE8=Miserable_Rosa
TTITLE9=CervenyKvitek_Letavice
TTITLE10=NocniVlak_Blatotlacky
TTITLE11=WabashCannonball_Blatotlacky
TTITLE12=Poupe_MensiBratri
TTITLE13=Strelenej_Minnesengri
TTITLE14=Cheyenove_Bobri
TTITLE15=NaMneHvezdyNesviti_Hraci
TTITLE16=LetoKonci_Foucmouk
TTITLE17=Vystehovalci_Pruvan
TTITLE18=BarvaBlue_Taxmeni
TTITLE19=SenJitkyVrbove_Sepie
TTITLE20=DlouhyCernyZavoj_Ohari
TTITLE21=Jackson_Volupsije
EXTD=YEAR: 1973
EXTT0=
EXTT1=
EXTT2=
EXTT3=
EXTT4=
EXTT5=
EXTT6=
EXTT7=
EXTT8=
EXTT9=
EXTT10=
EXTT11=
EXTT12=
EXTT13=
EXTT14=
EXTT15=
EXTT16=
EXTT17=
EXTT18=
EXTT19=
EXTT20=
EXTT21=
PLAYORDER=
